# AST/ASF file generated using VICON BodyLanguage
# -----------------------------------------------
:version 1.10
:name VICON
:units
  mass 1.0
  length 0.45
  angle deg
:documentation
   .ast/.asf automatically generated from VICON data using
   VICON BodyBuilder and BodyLanguage model FoxedUp or BRILLIANT.MOD
:root
   order TX TY TZ RX RY RZ
   axis XYZ
   position 0 0 0  
   orientation 0 0 0 
:bonedata
  begin
     id 1 
     name lhipjoint
     direction 0.682418 -0.694059 0.22932 
     length 2.25561 
     axis 0 0 0  XYZ
  end
  begin
     id 2 
     name lfemur
     direction 0.34202 -0.939693 0  
     length 6.96448  
     axis 0 0 20  XYZ
    dof rx ry rz
    limits (-160.0 20.0)
           (-70.0 70.0)
           (-60.0 70.0)
  end
  begin
     id 3 
     name ltibia
     direction 0.34202 -0.939693 0   
     length 6.88553   
     axis 0 0 20   XYZ
    dof rx
    limits (-10.0 170.0)
  end
  begin
     id 4 
     name lfoot
     direction 0.0723587 -0.198804 0.977364   
     length 1.88518   
     axis -90 7.62852e-016 20   XYZ
    dof rx rz
    limits (-45.0 90.0)
           (-70.0 20.0)
  end
  begin
     id 5 
     name ltoes
     direction 1.53558e-011 -4.21962e-011 1   
     length 0.952124   
     axis -90 7.62852e-016 20   XYZ
    dof rx
    limits (-90.0 20.0)
  end
  begin
     id 6 
     name rhipjoint
     direction -0.657603 -0.71533 0.236348   
     length 2.18854  
     axis 0 0 0  XYZ 
  end
  begin
     id 7 
     name rfemur
     direction -0.34202 -0.939693 0   
     length 6.86686   
     axis 0 0 -20   XYZ
    dof rx ry rz
    limits (-160.0 20.0)
           (-70.0 70.0)
           (-70.0 60.0)
  end
  begin
     id 8 
     name rtibia
     direction -0.34202 -0.939693 0   
     length 6.59503   
     axis 0 0 -20   XYZ
    dof rx
    limits (-10.0 170.0)
 end
 begin
     id 9 
     name rfoot
     direction -0.101977 -0.280179 0.954516   
     length 1.93723  
     axis -90 -7.62852e-016 -20   XYZ
    dof rx rz
    limits (-45.0 90.0)
           (-20.0 70.0)
  end
  begin
     id 10 
     name rtoes
     direction -1.53564e-011 -4.21897e-011 1   
     length 0.970315   
     axis -90 -7.62852e-016 -20   XYZ
    dof rx
    limits (-90.0 20.0)
  end
  begin
     id 11 
     name lowerback
     direction -0.0339559 0.999421 -0.00235966   
     length 1.88543   
     axis 0 0 0   XYZ
    dof rx ry rz
    limits (-20.0 45.0)
           (-30.0 30.0)
           (-30.0 30.0)
  end
  begin
     id 12 
     name upperback
     direction 0.00401003 0.999739 0.0224689   
     length 1.8856   
     axis 0 0 0   XYZ
    dof rx ry rz
    limits (-20.0 45.0)
           (-30.0 30.0)
           (-30.0 30.0)
  end
  begin
     id 13 
     name thorax
     direction 0.0198619 0.999546 0.0226536   
     length 1.88352   
     axis 0 0 0   XYZ
    dof rx ry rz
    limits (-20.0 45.0)
           (-30.0 30.0)
           (-30.0 30.0)
  end
  begin
     id 14 
     name lowerneck
     direction -0.0461848 0.998632 0.0245198   
     length 1.34895   
     axis 0 0 0   XYZ
    dof rx ry rz
    limits (-20.0 45.0)
           (-30.0 30.0)
           (-30.0 30.0)
  end
  begin
     id 15 
     name upperneck
     direction -0.0180627 0.994724 -0.100984   
     length 1.35214   
     axis 0 0 0   XYZ
    dof rx ry rz
    limits (-20.0 45.0)
           (-30.0 30.0)
           (-30.0 30.0)
  end
  begin
     id 16
     name head
     direction -0.00374772 0.999293 -0.037403  
     length 1.3568  
     axis 0 0 0   XYZ
    dof rx ry rz
    limits (-20.0 45.0)
           (-30.0 30.0)
           (-30.0 30.0)
  end
  begin
     id 17 
     name lclavicle
     direction 0.971773 0.191119 0.138311  
     length 2.84954  
     axis 0 0 0   XYZ
    dof ry rz
    limits (-20.0 10.0)
           (0.0 20.0)
  end
  begin
     id 18 
     name lhumerus
     direction 1 -4.4897e-011 -2.43761e-027   
     length 4.40919   
     axis 180 -30 -90   XYZ
    dof rx ry rz
    limits (-60.0 90.0)
           (-90.0 90.0)
           (-90.0 90.0)
  end
  begin
     id 19
     name lradius
     direction 1 -4.4896e-011 -9.1621e-027   
     length 3.03857   
     axis 180 -30 -90   XYZ
    dof rx
    limits (-10.0 170.0)
  end
  begin
     id 20
     name lwrist
     direction 1 -4.4896e-011 -1.41363e-026   
     length 1.51928   
     axis 1.07133e-014 90 90   XYZ
    dof ry
    limits (-180.0 0.0)
 end
  begin
     id 21 
     name lhand
     direction 1 -4.48978e-011 -2.82725e-026   
     length 0.523208   
     axis 1.80403e-014 90 90   XYZ
    dof rx rz
    limits (-90.0 90.0)
           (-45.0 45.0)
  end
  begin
     id 22 
     name lfingers
     direction 1 -4.48977e-011 -5.6545e-026   
     length 0.421824   
     axis 3.60806e-014 90 90   XYZ
    dof rx
    limits (0.0 90.0)
  end
  begin
     id 23
     name lthumb
     direction 0.707107 -6.34962e-011 0.707107   
     length 0.605657   
     axis -90 45 2.85299e-015   XYZ
    dof rx rz
    limits (-45.0 45.0)
           (-45.0 45.0)
  end
  begin
     id 24 
     name rclavicle
     direction -0.957247 0.24311 0.156766   
     length 3.12406  
     axis 0 0 0   XYZ 
    dof ry rz
    limits (-10.0 20.0)
           (-20.0 0.0)
  end
  begin
     id 25 
     name rhumerus
     direction -1 -4.48964e-011 -1.70632e-027  
     length 4.61969   
     axis 180 30 90   XYZ
    dof rx ry rz
    limits (-90.0 60.0)
           (-90.0 90.0)
           (-90.0 90.0)
  end
  begin
     id 26 
     name rradius
     direction -1 -4.48966e-011 -6.60395e-027   
     length 3.09382   
     axis 180 30 90   XYZ
    dof rx
    limits (-10.0 170.0)
  end
  begin
     id 27 
     name rwrist
     direction -1 -4.48963e-011 -1.41363e-026   
     length 1.54691   
     axis 1.07133e-014 -90 -90   XYZ
    dof ry
    limits (-180.0 0.0)
  end
  begin
     id 28
     name rhand
     direction -1 -4.49013e-011 -2.82725e-026   
     length 0.500896   
     axis 1.80403e-014 -90 -90   XYZ
    dof rx rz
    limits (-90.0 90.0)
           (-45.0 45.0)
  end
  begin
     id 29
     name rfingers
     direction -1 -4.48902e-011 -5.6545e-026   
     length 0.403835   
     axis 3.60806e-014 -90 -90   XYZ
    dof rx
    limits (0.0 90.0)
  end
  begin
     id 30
     name rthumb
     direction -0.707107 -6.34953e-011 0.707107   
     length 0.579829   
     axis -90 -45 -2.85299e-015   XYZ
    dof rx rz
    limits (-45.0 45.0)
           (-45.0 45.0)
  end
:hierarchy
  begin
    root lhipjoint rhipjoint lowerback
    lhipjoint lfemur
    lfemur ltibia
    ltibia lfoot
    lfoot ltoes
    rhipjoint rfemur
    rfemur rtibia
    rtibia rfoot
    rfoot rtoes
    lowerback upperback
    upperback thorax
    thorax lowerneck lclavicle rclavicle
    lowerneck upperneck
    upperneck head
    lclavicle lhumerus
    lhumerus lradius
    lradius lwrist
    lwrist lhand lthumb
    lhand lfingers
    rclavicle rhumerus
    rhumerus rradius
    rradius rwrist
    rwrist rhand rthumb
    rhand rfingers
  end

#!OML:ASF E:\madness\Project 1\Capture day 1\Session 1\Female1.ASF
:FULLY-SPECIFIED
:DEGREES
564
root 12.7515 15.7813 5.35118 -167.508 -74.6475 178.374
lowerback 1.52715 -2.13968 -3.27519
upperback -3.06316 -2.92777 3.00433
thorax -3.70192 -1.34003 5.08708
lowerneck -2.95329 -5.18727 -4.36332
upperneck 29.7407 -8.15743 -1.89032
head 10.031 -5.04161 -0.778751
rclavicle -9.10931e-014 1.66979e-014
rhumerus -60.6951 -21.8928 -21.6978
rradius 57.5332
rwrist -1.44516
rhand -14.5627 -46.6825
rfingers 7.12502
rthumb 11.5865 -76.3422
lclavicle -9.10931e-014 1.66979e-014
lhumerus -58.1886 20.9103 48.1134
lradius 103.56
lwrist -4.34939
lhand -34.6452 -8.54297
lfingers 7.12502
lthumb -7.80233 21.2931
rfemur -54.4883 17.0639 12.1989
rtibia 51.3189
rfoot 2.74967 -18.2291
rtoes 25.8303
lfemur -23.0353 1.59543 -29.5078
ltibia 36.8456
lfoot -20.8135 11.2962
ltoes 16.7406
565
root 12.7364 15.7817 5.35171 -167.801 -74.9857 178.568
lowerback 1.55147 -2.23002 -3.14501
upperback -2.97898 -3.0431 2.99898
thorax -3.6215 -1.4044 5.00995
lowerneck -3.0279 -5.17318 -4.3209
upperneck 29.729 -8.13005 -1.88737
head 10.0382 -5.02074 -0.784368
rclavicle -6.26669e-014 2.06736e-014
rhumerus -60.6351 -22.12 -21.719
rradius 57.4363
rwrist -1.28801
rhand -14.636 -46.9476
rfingers 7.12502
rthumb 11.5158 -76.6112
lclavicle -6.26669e-014 2.06736e-014
lhumerus -58.2835 21.0422 48.0739
lradius 103.577
lwrist -4.35428
lhand -34.4909 -8.604
lfingers 7.12502
lthumb -7.65338 21.2375
rfemur -54.3096 16.9634 12.2092
rtibia 50.8079
rfoot 2.93046 -17.8127
rtoes 25.347
lfemur -22.8591 1.39932 -29.4041
ltibia 36.8905
lfoot -20.9127 11.2614
ltoes 16.8451
566
root 12.7225 15.7828 5.35426 -168.226 -75.8085 178.52
lowerback 2.04341 -2.40336 -2.91391
upperback -2.85451 -3.27256 2.93953
thorax -3.76046 -1.52232 4.8473
lowerneck -3.02959 -5.25055 -4.24595
upperneck 29.7305 -8.2478 -1.87884
head 10.0374 -5.06401 -0.804786
rclavicle -2.56432e-014 1.59028e-015
rhumerus -60.8855 -22.4874 -21.4582
rradius 57.3411
rwrist -1.00165
rhand -14.9846 -46.9751
rfingers 7.12502
rthumb 11.1796 -76.6572
lclavicle -2.56432e-014 1.59028e-015
lhumerus -58.4731 20.8811 48.1461
lradius 103.814
lwrist -4.22737
lhand -34.4563 -8.1302
lfingers 7.12502
lthumb -7.62003 21.7125
rfemur -53.6276 16.6475 12.2831
rtibia 50.3036
rfoot 2.85569 -17.7758
rtoes 24.9762
lfemur -22.2568 0.882623 -29.2466
ltibia 36.903
lfoot -21.0322 11.0866
ltoes 17.1352
567
root 12.7113 15.7727 5.34664 -168.309 -75.4652 178.853
lowerback 1.78627 -2.21262 -3.06092
upperback -2.947 -3.02026 2.97223
thorax -3.72885 -1.39243 4.94442
lowerneck -2.93771 -5.3763 -4.25927
upperneck 29.7044 -8.42267 -1.91001
head 10.0125 -5.14918 -0.825257
rclavicle -1.04362e-014 1.59028e-014
rhumerus -61.0177 -22.5879 -21.2374
rradius 57.2363
rwrist -0.925796
rhand -15.0374 -46.6843
rfingers 7.12502
rthumb 11.1287 -76.3692
lclavicle -1.04362e-014 1.59028e-014
lhumerus -58.7275 20.6955 48.2576
lradius 103.968
lwrist -4.14294
lhand -34.4234 -8.05592
lfingers 7.12502
lthumb -7.58823 21.788
rfemur -54.0366 17.0021 12.1205
rtibia 49.8164
rfoot 3.1159 -17.5603
rtoes 24.7681
lfemur -22.4952 1.19022 -29.23
ltibia 36.9398
lfoot -21.1721 11.0382
ltoes 17.8597
568
root 12.6946 15.7715 5.34442 -168.22 -75.7868 178.635
lowerback 1.97642 -2.23505 -3.07905
upperback -2.97704 -3.05467 2.94085
thorax -3.86496 -1.40488 4.9342
lowerneck -2.92476 -5.49233 -4.17239
upperneck 29.7115 -8.5808 -1.97866
head 10.0071 -5.21926 -0.877797
rclavicle 3.33958e-014 7.15625e-015
rhumerus -61.1218 -22.5975 -21.0778
rradius 57.0547
rwrist -0.897122
rhand -14.2907 -45.7784
rfingers 7.12502
rthumb 11.8488 -75.4231
lclavicle 3.33958e-014 7.15625e-015
lhumerus -58.8205 20.5609 48.3379
lradius 103.936
lwrist -4.2124
lhand -34.4922 -8.44354
lfingers 7.12502
lthumb -7.6547 21.3979
rfemur -53.8412 16.901 12.0397
rtibia 49.3854
rfoot 3.151 -17.4857
rtoes 24.9549
lfemur -22.2834 1.0607 -29.2279
ltibia 36.9334
lfoot -21.2824 10.7739
ltoes 18.3191
569
root 12.6753 15.7711 5.34119 -168.144 -76.1353 178.39
lowerback 2.19516 -2.27218 -3.05538
upperback -2.96509 -3.10729 2.89114
thorax -3.97457 -1.42881 4.8821
lowerneck -2.94473 -5.5515 -4.10674
upperneck 29.645 -8.65475 -1.98738
head 9.98324 -5.24245 -0.896403
rclavicle -5.66039e-014 1.11319e-014
rhumerus -61.186 -22.4598 -21.0818
rradius 56.9944
rwrist -0.98366
rhand -14.1385 -45.6854
rfingers 7.12502
rthumb 11.9955 -75.3216
lclavicle -5.66039e-014 1.11319e-014
lhumerus -58.9418 20.4912 48.3845
lradius 103.946
lwrist -4.31744
lhand -34.716 -8.10674
lfingers 7.12502
lthumb -7.8707 21.7267
rfemur -53.5852 16.84 11.9445
rtibia 48.9673
rfoot 3.1437 -17.3656
rtoes 24.7794
lfemur -22.0487 0.929142 -29.2241
ltibia 36.975
lfoot -21.471 10.5894
ltoes 18.31
570
root 12.6547 15.7686 5.33695 -168.207 -76.2056 178.368
lowerback 2.32471 -2.26862 -3.12331
upperback -2.96892 -3.10689 2.92148
thorax -4.04729 -1.42389 4.95932
lowerneck -2.84458 -5.55532 -4.23384
upperneck 29.4381 -8.67091 -1.81507
head 9.90352 -5.23921 -0.805359
rclavicle 1.91827e-014 -1.35174e-014
rhumerus -61.0358 -21.9307 -21.442
rradius 57.2231
rwrist -1.38111
rhand -14.767 -46.5252
rfingers 7.12502
rthumb 11.3895 -76.1959
lclavicle 1.91827e-014 -1.35174e-014
lhumerus -59.2892 20.5486 48.3594
lradius 104.032
lwrist -4.27437
lhand -34.848 -7.62589
lfingers 7.12502
lthumb -7.99808 22.2028
rfemur -53.461 16.9539 11.8596
rtibia 48.5499
rfoot 3.15189 -17.1908
rtoes 24.6535
lfemur -21.8844 0.960575 -29.231
ltibia 37.0207
lfoot -21.671 10.5369
ltoes 18.3716
571
root 12.6378 15.7615 5.33164 -168.375 -76.1764 178.61
lowerback 2.22221 -2.25914 -3.2082
upperback -2.94637 -3.09443 2.98764
thorax -3.95954 -1.41735 5.06975
lowerneck -2.87502 -5.59786 -4.41533
upperneck 29.3267 -8.7526 -1.58199
head 9.89109 -5.26539 -0.700425
rclavicle -6.75868e-015 4.77083e-015
rhumerus -60.7413 -21.6634 -21.7785
rradius 57.3113
rwrist -1.54607
rhand -15.0495 -46.8313
rfingers 7.12502
rthumb 11.117 -76.5168
lclavicle -6.75868e-015 4.77083e-015
lhumerus -59.5469 20.7453 48.366
lradius 104.123
lwrist -4.12598
lhand -34.737 -7.95235
lfingers 7.12502
lthumb -7.8909 21.8804
rfemur -53.5218 17.0988 11.8116
rtibia 48.1074
rfoot 3.24005 -17.0995
rtoes 24.5338
lfemur -21.9206 1.04939 -29.1889
ltibia 37.131
lfoot -21.8208 10.51
ltoes 18.0235
572
root 12.6243 15.7512 5.32262 -168.298 -76.0792 178.742
lowerback 1.86405 -2.18822 -3.33824
upperback -2.88084 -2.99657 3.01291
thorax -3.69174 -1.37321 5.14456
lowerneck -2.9709 -5.7003 -4.538
upperneck 29.2388 -8.90719 -1.39537
head 9.89594 -5.3212 -0.631641
rclavicle -4.33351e-014 1.59028e-015
rhumerus -60.5618 -22.0851 -21.7232
rradius 57.0839
rwrist -1.34346
rhand -15.1269 -46.7514
rfingers 7.12502
rthumb 11.0423 -76.4409
lclavicle -4.33351e-014 1.59028e-015
lhumerus -59.5469 20.8819 48.5187
lradius 104.21
lwrist -3.99377
lhand -34.74 -8.13351
lfingers 7.12502
lthumb -7.89381 21.6991
rfemur -53.7577 17.2522 11.7062
rtibia 47.6289
rfoot 3.52502 -17.0139
rtoes 23.9405
lfemur -22.1509 1.20603 -29.1757
ltibia 37.3002
lfoot -21.9905 10.5767
ltoes 17.0321
